<?xml version="1.0" standalone="no"?>
<!DOCTYPE svg PUBLIC "-//W3C//DTD SVG 20010904//EN"
 "http://www.w3.org/TR/2001/REC-SVG-20010904/DTD/svg10.dtd">
<svg version="1.0" xmlns="http://www.w3.org/2000/svg"
 width="1000.000000pt" height="1000.000000pt" viewBox="0 0 1000.000000 1000.000000"
 preserveAspectRatio="xMidYMid meet">
<metadata>
Created by potrace 1.14, written by Peter Selinger 2001-2017
</metadata>
<g transform="translate(0.000000,1000.000000) scale(0.100000,-0.100000)"
fill="#000000" stroke="none">
<path d="M9255 6523 c-24 -4 -106 -22 -160 -37 -129 -34 -296 -101 -478 -192
-185 -93 -368 -223 -536 -382 -72 -68 -74 -69 -92 -51 -11 11 -19 22 -19 25 0
9 -107 166 -133 194 -113 125 -286 205 -509 237 -98 14 -548 5 -578 -12 -3 -1
-39 -6 -80 -9 -41 -4 -88 -9 -105 -11 -16 -2 -59 -7 -95 -10 -36 -3 -72 -8
-80 -10 -8 -2 -35 -7 -60 -10 -58 -8 -166 -33 -206 -47 -29 -10 -41 -7 -135
40 -174 87 -314 112 -599 106 -102 -2 -203 -5 -225 -8 -22 -2 -78 -7 -125 -11
-92 -7 -267 -39 -315 -57 -16 -6 -43 -21 -60 -33 -16 -12 -64 -37 -105 -54
-96 -42 -227 -107 -265 -134 -43 -30 -108 -97 -122 -126 -11 -26 -11 -26 -12
10 -3 132 -114 314 -186 306 -26 -3 -33 -11 -56 -65 -30 -74 -31 -74 -66 -78
-16 -1 -31 -2 -35 -3 -5 -1 -8 -9 -8 -18 0 -9 -9 -35 -20 -57 -18 -38 -27 -71
-29 -103 -1 -7 -6 -13 -12 -13 -33 0 -75 -70 -132 -219 -62 -166 -183 -408
-209 -419 -4 -2 -8 -8 -8 -14 0 -10 -311 -479 -350 -528 -11 -14 -20 -21 -20
-17 -1 31 114 337 189 506 114 255 172 411 173 466 1 52 -23 95 -84 148 -61
53 -66 57 -78 57 -7 0 -10 6 -7 13 6 18 -17 90 -39 117 -46 58 -113 115 -164
139 -47 22 -69 25 -155 26 -92 0 -104 -2 -148 -28 -77 -46 -124 -119 -190
-302 -33 -88 -65 -176 -72 -195 -7 -19 -16 -43 -19 -52 -7 -24 -26 -23 -26 1
0 26 -38 71 -60 71 -13 0 -17 5 -13 19 4 15 -1 20 -19 23 -19 2 -23 8 -21 38
1 19 -4 38 -10 42 -7 4 14 8 45 8 55 0 57 1 49 23 -4 12 -18 23 -30 25 -11 2
-21 9 -21 16 0 27 -42 51 -98 56 -47 4 -57 9 -61 25 -2 11 -8 23 -15 28 -6 4
-3 6 9 5 51 -4 55 0 49 45 -7 47 -20 77 -34 77 -5 0 -22 13 -37 30 -47 49 -75
58 -166 54 -45 -2 -167 -6 -272 -8 -104 -2 -197 -7 -205 -10 -8 -3 -26 -7 -40
-10 -14 -2 -95 -18 -180 -34 -85 -17 -171 -34 -190 -37 -19 -3 -46 -7 -60 -10
-14 -3 -41 -7 -60 -10 -19 -3 -42 -8 -50 -10 -8 -2 -35 -7 -60 -10 -25 -3 -56
-8 -70 -10 -56 -10 -115 -18 -255 -35 -49 -6 -103 -13 -120 -15 -16 -3 -90 -7
-164 -11 l-135 -7 -39 -36 c-48 -44 -76 -102 -77 -157 0 -39 36 -169 62 -224
16 -32 67 -99 93 -123 19 -16 129 -77 140 -77 3 0 11 0 18 0 7 0 21 -14 31
-31 27 -45 83 -95 135 -121 37 -17 64 -22 138 -22 51 -1 93 -1 93 -2 0 0 -19
-39 -41 -85 -62 -126 -185 -399 -236 -524 -25 -60 -51 -123 -58 -140 -59 -140
-123 -357 -131 -447 -6 -62 -5 -69 22 -105 16 -21 33 -41 39 -44 69 -44 105
-77 105 -96 0 -16 5 -21 15 -17 8 3 26 -4 41 -15 15 -12 35 -21 46 -21 10 0
21 -7 24 -15 3 -8 26 -26 50 -40 24 -14 55 -37 68 -50 14 -14 28 -25 31 -25 4
0 14 -9 23 -20 10 -11 29 -23 45 -26 15 -2 36 -13 47 -24 24 -24 32 -24 68 -6
46 24 71 59 98 137 59 168 292 739 394 964 10 22 35 75 54 118 20 43 36 81 36
83 0 3 38 89 84 192 47 103 88 201 91 217 28 128 69 198 122 209 37 7 254 46
290 51 15 2 65 11 110 19 45 8 101 18 125 21 24 4 62 10 86 15 23 4 42 6 42 4
0 -2 -4 -13 -9 -26 -5 -13 -22 -57 -36 -98 -15 -41 -36 -94 -46 -118 -34 -75
-78 -223 -100 -332 -31 -153 -36 -462 -10 -577 10 -46 30 -102 44 -125 41 -70
133 -154 209 -193 39 -19 89 -55 113 -79 59 -62 139 -110 226 -137 61 -20 97
-23 209 -24 74 0 153 3 176 7 114 19 276 93 322 146 13 15 45 52 72 82 193
222 369 459 469 635 28 49 51 86 51 83 0 -3 -20 -64 -45 -135 -60 -175 -105
-352 -112 -445 -7 -97 0 -128 30 -128 17 0 30 -11 46 -40 19 -34 25 -38 41
-30 26 14 28 13 24 -16 -6 -54 7 -58 45 -15 28 33 41 40 58 35 20 -5 22 -12
20 -46 -3 -36 1 -45 35 -79 31 -31 45 -38 64 -33 14 4 31 1 39 -6 12 -10 15
-10 15 0 0 8 9 10 28 5 40 -10 92 -45 92 -62 0 -36 23 -1 50 75 16 46 38 98
50 116 11 19 29 58 39 87 25 74 122 256 159 300 20 23 27 40 21 46 -9 9 4 52
33 110 19 38 18 20 -2 -47 -11 -35 -17 -66 -15 -68 11 -11 35 10 35 31 0 14 8
31 17 38 9 8 33 49 54 93 l37 79 98 39 c176 70 197 78 208 78 6 0 22 -33 35
-73 29 -88 104 -284 136 -352 20 -43 21 -52 9 -66 -8 -8 -14 -27 -14 -41 0
-25 37 -68 58 -68 6 0 9 -7 6 -15 -4 -10 3 -18 19 -24 14 -6 28 -19 32 -30 3
-12 11 -22 16 -22 5 -1 13 -2 18 -3 17 -2 23 -14 28 -53 7 -52 17 -59 41 -29
23 30 38 33 46 9 7 -21 73 -66 85 -59 4 3 13 -6 19 -19 7 -14 18 -25 26 -25 8
0 22 -10 30 -22 12 -17 18 -19 30 -9 11 9 19 7 41 -14 16 -14 37 -25 48 -25
15 0 18 -5 13 -25 -5 -19 -2 -25 10 -25 31 0 284 80 379 120 11 5 130 52 265
105 632 250 1026 451 1206 617 l42 39 22 -35 c50 -82 200 -215 294 -263 28
-14 57 -34 64 -44 22 -32 130 -109 200 -144 124 -62 206 -79 387 -80 222 0
292 8 462 56 382 107 616 366 677 748 14 85 14 362 1 426 -34 170 -121 340
-259 505 -25 30 -46 57 -46 61 0 3 28 15 63 28 91 32 112 51 110 99 -2 46 -61
139 -130 206 -24 23 -43 49 -43 58 0 24 -109 166 -164 215 -65 57 -139 73
-261 56z m42 -836 c10 -70 5 -167 -12 -258 -18 -96 -80 -192 -208 -322 -165
-167 -313 -239 -521 -252 -120 -7 -125 -5 -115 48 34 179 156 344 423 572 134
113 394 281 418 268 4 -2 11 -27 15 -56z m-4901 -9 c30 -22 53 -46 50 -52 -57
-137 -130 -302 -134 -306 -2 -3 -2 7 2 22 14 58 21 147 21 261 0 64 1 117 3
117 2 0 28 -19 58 -42z"/>
</g>
</svg>
